<svg width="31" height="31" viewBox="0 0 31 31" fill="none" xmlns="http://www.w3.org/2000/svg">
<path fill-rule="evenodd" clip-rule="evenodd" d="M16.8692 20.7442C16.5059 21.107 16.0134 21.3108 15.5 21.3108C14.9866 21.3108 14.4941 21.107 14.1308 20.7442L6.82258 13.4385C6.45928 13.075 6.25525 12.5821 6.25537 12.0682C6.25549 11.5543 6.45975 11.0615 6.82322 10.6982C7.18669 10.3349 7.67959 10.1309 8.19349 10.131C8.70739 10.1311 9.2002 10.3354 9.56349 10.6989L15.5 16.6354L21.4365 10.6989C21.8017 10.3458 22.2911 10.1502 22.7991 10.1544C23.3071 10.1586 23.7931 10.3621 24.1525 10.7212C24.5119 11.0802 24.7159 11.5661 24.7206 12.0741C24.7252 12.5821 24.5302 13.0716 24.1774 13.4372L16.8705 20.7454L16.8692 20.7442Z" fill="black"/>
</svg>
