<svg width="30" height="30" viewBox="0 0 30 30" fill="none" xmlns="http://www.w3.org/2000/svg">
<path d="M5 3.75H25C25.3315 3.75 25.6495 3.8817 25.8839 4.11612C26.1183 4.35054 26.25 4.66848 26.25 5V6.9825C26.2499 7.31399 26.1182 7.63188 25.8838 7.86625L17.8663 15.8837C17.6318 16.1181 17.5001 16.436 17.5 16.7675V24.6488C17.4999 24.8386 17.4566 25.026 17.3734 25.1966C17.2901 25.3673 17.169 25.5167 17.0194 25.6336C16.8698 25.7504 16.6955 25.8317 16.5097 25.8711C16.324 25.9106 16.1317 25.9072 15.9475 25.8612L13.4475 25.2362C13.177 25.1688 12.9367 25.0128 12.7651 24.7931C12.5934 24.5734 12.5001 24.3026 12.5 24.0238V16.7675C12.4999 16.436 12.3682 16.1181 12.1337 15.8837L4.11625 7.86625C3.88181 7.63188 3.75007 7.31399 3.75 6.9825V5C3.75 4.66848 3.8817 4.35054 4.11612 4.11612C4.35054 3.8817 4.66848 3.75 5 3.75Z" fill="black" stroke="black" stroke-width="1.5" stroke-linecap="round" stroke-linejoin="round"/>
</svg>
