<svg width="225" height="58" viewBox="0 0 225 58" fill="none" xmlns="http://www.w3.org/2000/svg">
<path d="M26.0111 49.6567C37.5326 49.6567 46.8721 40.3172 46.8721 28.7957C46.8721 17.2742 37.5326 7.93471 26.0111 7.93471C14.4896 7.93471 5.15015 17.2742 5.15015 28.7957C5.15015 40.3172 14.4896 49.6567 26.0111 49.6567Z" stroke="black" stroke-width="2" stroke-linejoin="round"/>
<path d="M26.0112 22.5374C26.8411 22.5374 27.637 22.2077 28.2239 21.6209C28.8107 21.0341 29.1404 20.2381 29.1404 19.4082C29.1404 18.5783 28.8107 17.7824 28.2239 17.1956C27.637 16.6088 26.8411 16.2791 26.0112 16.2791C25.1813 16.2791 24.3854 16.6088 23.7986 17.1956C23.2117 17.7824 22.8821 18.5783 22.8821 19.4082C22.8821 20.2381 23.2117 21.0341 23.7986 21.6209C24.3854 22.2077 25.1813 22.5374 26.0112 22.5374ZM26.0112 41.3123C26.8411 41.3123 27.637 40.9826 28.2239 40.3958C28.8107 39.8089 29.1404 39.013 29.1404 38.1831C29.1404 37.3532 28.8107 36.5573 28.2239 35.9705C27.637 35.3837 26.8411 35.054 26.0112 35.054C25.1813 35.054 24.3854 35.3837 23.7986 35.9705C23.2117 36.5573 22.8821 37.3532 22.8821 38.1831C22.8821 39.013 23.2117 39.8089 23.7986 40.3958C24.3854 40.9826 25.1813 41.3123 26.0112 41.3123ZM16.6238 31.9248C17.4537 31.9248 18.2496 31.5952 18.8364 31.0083C19.4232 30.4215 19.7529 29.6256 19.7529 28.7957C19.7529 27.9658 19.4232 27.1699 18.8364 26.583C18.2496 25.9962 17.4537 25.6665 16.6238 25.6665C15.7939 25.6665 14.998 25.9962 14.4111 26.583C13.8243 27.1699 13.4946 27.9658 13.4946 28.7957C13.4946 29.6256 13.8243 30.4215 14.4111 31.0083C14.998 31.5952 15.7939 31.9248 16.6238 31.9248ZM35.3987 31.9248C36.2286 31.9248 37.0245 31.5952 37.6113 31.0083C38.1981 30.4215 38.5278 29.6256 38.5278 28.7957C38.5278 27.9658 38.1981 27.1699 37.6113 26.583C37.0245 25.9962 36.2286 25.6665 35.3987 25.6665C34.5688 25.6665 33.7728 25.9962 33.186 26.583C32.5992 27.1699 32.2695 27.9658 32.2695 28.7957C32.2695 29.6256 32.5992 30.4215 33.186 31.0083C33.7728 31.5952 34.5688 31.9248 35.3987 31.9248Z" stroke="black" stroke-width="2" stroke-linejoin="round"/>
<path d="M26.0112 49.6567H46.8722" stroke="black" stroke-width="2" stroke-linecap="round"/>
<g filter="url(#filter0_d_3_124)">
<path d="M68.4567 37.6456L62.8887 24.0136L62.3367 36.5416C62.7047 36.7016 63.0887 36.8056 63.4887 36.8536C63.9047 36.9016 64.2247 36.9256 64.4487 36.9256V37.6456H58.8807V36.9256C59.1047 36.9256 59.4247 36.9016 59.8407 36.8536C60.2567 36.8056 60.6407 36.7016 60.9927 36.5416L61.6407 21.7816C61.2887 21.6216 60.9047 21.5176 60.4887 21.4696C60.0727 21.4216 59.7527 21.3976 59.5287 21.3976V20.6776H63.8007L69.0807 33.5896L75.4167 20.6776H78.9447V21.3976C78.7207 21.3976 78.4087 21.4216 78.0087 21.4696C77.6087 21.5176 77.2247 21.6216 76.8567 21.7816L77.4327 36.5416C77.8007 36.7016 78.1847 36.8056 78.5847 36.8536C79.0007 36.9016 79.3207 36.9256 79.5447 36.9256V37.6456H73.2327V36.9256C73.4567 36.9256 73.7687 36.9016 74.1687 36.8536C74.5847 36.8056 74.9687 36.7016 75.3207 36.5416L74.8647 24.5896L68.4567 37.6456ZM86.4062 37.8376C85.3822 37.8376 84.4462 37.5896 83.5982 37.0936C82.7662 36.5816 82.0942 35.9016 81.5822 35.0536C81.0862 34.2056 80.8382 33.2616 80.8382 32.2216C80.8382 31.1816 81.0782 30.2296 81.5582 29.3656C82.0542 28.5016 82.7182 27.8136 83.5502 27.3016C84.3822 26.7736 85.3102 26.5096 86.3342 26.5096C87.3902 26.5096 88.3422 26.7736 89.1902 27.3016C90.0382 27.8136 90.7022 28.4936 91.1822 29.3416C91.6782 30.1896 91.9262 31.1096 91.9262 32.1016C91.9262 33.1416 91.6782 34.1016 91.1822 34.9816C90.7022 35.8456 90.0462 36.5416 89.2142 37.0696C88.3822 37.5816 87.4462 37.8376 86.4062 37.8376ZM86.7902 36.7816C87.4302 36.7816 87.9662 36.5896 88.3982 36.2056C88.8462 35.8216 89.1902 35.3256 89.4302 34.7176C89.6702 34.0936 89.7902 33.4376 89.7902 32.7496C89.7902 31.8856 89.6222 31.0616 89.2862 30.2776C88.9502 29.4776 88.4942 28.8216 87.9182 28.3096C87.3582 27.7976 86.7102 27.5416 85.9742 27.5416C85.3662 27.5416 84.8302 27.7336 84.3662 28.1176C83.9182 28.4856 83.5662 28.9736 83.3102 29.5816C83.0702 30.1896 82.9502 30.8456 82.9502 31.5496C82.9502 32.3976 83.1182 33.2296 83.4542 34.0456C83.7902 34.8456 84.2462 35.5016 84.8222 36.0136C85.3982 36.5256 86.0542 36.7816 86.7902 36.7816ZM97.545 37.9816L93.609 27.7816C93.353 27.6376 93.081 27.5416 92.793 27.4936C92.521 27.4456 92.305 27.4216 92.145 27.4216V26.7016H97.329V27.4216C97.153 27.4216 96.897 27.4456 96.561 27.4936C96.241 27.5416 95.937 27.6456 95.649 27.8056L98.337 34.8856L101.217 27.8056C100.929 27.6456 100.617 27.5416 100.281 27.4936C99.945 27.4456 99.689 27.4216 99.513 27.4216V26.7016H103.953V27.4216C103.793 27.4216 103.577 27.4456 103.305 27.4936C103.033 27.5416 102.761 27.6376 102.489 27.7816L98.361 37.9816H97.545ZM104.858 37.6456V36.9256C105.066 36.9256 105.354 36.9016 105.722 36.8536C106.09 36.8056 106.434 36.7016 106.754 36.5416V28.4056C106.546 28.3256 106.298 28.2856 106.01 28.2856C105.738 28.2696 105.49 28.2776 105.266 28.3096L105.05 27.6856L108.218 26.3656L108.698 26.7016V36.5416C109.018 36.7016 109.362 36.8056 109.73 36.8536C110.098 36.9016 110.386 36.9256 110.594 36.9256V37.6456H104.858ZM107.69 24.0856C107.306 24.0856 106.986 23.9656 106.73 23.7256C106.49 23.4696 106.37 23.1496 106.37 22.7656C106.37 22.4136 106.49 22.1016 106.73 21.8296C106.986 21.5576 107.306 21.4216 107.69 21.4216C108.074 21.4216 108.394 21.5496 108.65 21.8056C108.906 22.0616 109.034 22.3736 109.034 22.7416C109.034 23.0936 108.906 23.4056 108.65 23.6776C108.394 23.9496 108.074 24.0856 107.69 24.0856ZM111.635 32.4856C111.635 31.3176 111.867 30.2856 112.331 29.3896C112.795 28.4776 113.411 27.7656 114.179 27.2536C114.963 26.7416 115.827 26.4936 116.771 26.5096C117.571 26.5096 118.275 26.7096 118.883 27.1096C119.491 27.5096 119.947 28.0536 120.251 28.7416C120.571 29.4136 120.683 30.1576 120.587 30.9736L113.387 31.3576V31.4296C113.387 32.2616 113.555 33.0376 113.891 33.7576C114.227 34.4616 114.691 35.0296 115.283 35.4616C115.875 35.8776 116.547 36.0856 117.299 36.0856C117.843 36.0856 118.339 35.9816 118.787 35.7736C119.235 35.5496 119.611 35.3016 119.915 35.0296L120.419 35.4616C120.179 35.8136 119.843 36.1736 119.411 36.5416C118.995 36.9096 118.515 37.2216 117.971 37.4776C117.427 37.7176 116.843 37.8376 116.219 37.8376C115.323 37.8376 114.531 37.5896 113.843 37.0936C113.155 36.5976 112.611 35.9416 112.211 35.1256C111.827 34.3096 111.635 33.4296 111.635 32.4856ZM116.195 27.7576C115.507 27.7576 114.923 28.0136 114.443 28.5256C113.979 29.0376 113.667 29.6616 113.507 30.3976L118.451 30.0136C118.451 29.4056 118.227 28.8776 117.779 28.4296C117.331 27.9816 116.803 27.7576 116.195 27.7576ZM122.404 26.7016H123.7C123.7 25.9816 123.732 25.2456 123.796 24.4936C123.876 23.7256 124.052 22.9896 124.324 22.2856C124.612 21.5656 125.06 20.9096 125.668 20.3176C126.276 19.7416 126.916 19.3336 127.588 19.0936C128.26 18.8376 128.916 18.7096 129.556 18.7096C130.164 18.7096 130.724 18.8056 131.236 18.9976C131.764 19.1896 132.188 19.4456 132.508 19.7656L130.924 21.3016C130.62 20.9656 130.252 20.6856 129.82 20.4616C129.404 20.2376 128.988 20.1256 128.572 20.1256C128.204 20.1256 127.836 20.1976 127.468 20.3416C127.116 20.4856 126.804 20.7176 126.532 21.0376C126.116 21.5016 125.86 22.1256 125.764 22.9096C125.684 23.6776 125.644 24.7416 125.644 26.1016V26.7016H129.148V28.0456H125.644V36.5416C126.028 36.7016 126.444 36.8056 126.892 36.8536C127.34 36.9016 127.684 36.9256 127.924 36.9256V37.6456H121.804V36.9256C122.012 36.9256 122.3 36.9016 122.668 36.8536C123.036 36.8056 123.38 36.7016 123.7 36.5416V28.0456H122.14L122.404 26.7016ZM132.49 44.3416L131.122 42.5416C131.538 42.2856 131.93 41.9976 132.298 41.6776C132.666 41.3576 133.002 41.0056 133.306 40.6216C133.626 40.2536 133.962 39.7576 134.314 39.1336C134.682 38.5096 135.002 37.9256 135.274 37.3816L131.578 27.7816C131.322 27.6376 131.05 27.5416 130.762 27.4936C130.49 27.4456 130.274 27.4216 130.114 27.4216V26.7016H135.274V27.4216C135.098 27.4216 134.842 27.4456 134.506 27.4936C134.186 27.5416 133.882 27.6456 133.594 27.8056L136.306 34.8856L139.186 27.8056C138.898 27.6456 138.586 27.5416 138.25 27.4936C137.93 27.4456 137.682 27.4216 137.506 27.4216V26.7016H141.946V27.4216C141.786 27.4216 141.562 27.4456 141.274 27.4936C140.986 27.5416 140.706 27.6456 140.434 27.8056L136.042 38.6776C135.93 38.9816 135.754 39.3816 135.514 39.8776C135.29 40.3736 135.05 40.8696 134.794 41.3656C134.538 41.8776 134.298 42.3016 134.074 42.6376C133.77 43.0856 133.498 43.4376 133.258 43.6936C133.034 43.9496 132.778 44.1656 132.49 44.3416Z" fill="#070707"/>
</g>
<defs>
<filter id="filter0_d_3_124" x="54.8806" y="18.7096" width="91.0652" height="33.632" filterUnits="userSpaceOnUse" color-interpolation-filters="sRGB">
<feFlood flood-opacity="0" result="BackgroundImageFix"/>
<feColorMatrix in="SourceAlpha" type="matrix" values="0 0 0 0 0 0 0 0 0 0 0 0 0 0 0 0 0 0 127 0" result="hardAlpha"/>
<feOffset dy="4"/>
<feGaussianBlur stdDeviation="2"/>
<feComposite in2="hardAlpha" operator="out"/>
<feColorMatrix type="matrix" values="0 0 0 0 0 0 0 0 0 0 0 0 0 0 0 0 0 0 0.25 0"/>
<feBlend mode="normal" in2="BackgroundImageFix" result="effect1_dropShadow_3_124"/>
<feBlend mode="normal" in="SourceGraphic" in2="effect1_dropShadow_3_124" result="shape"/>
</filter>
</defs>
</svg>
