<svg width="40" height="40" viewBox="0 0 40 40" fill="none" xmlns="http://www.w3.org/2000/svg">
<path d="M34.5167 12.2333C33.95 12.8 33.4 13.35 33.3833 13.9C33.3333 14.4333 33.9 14.9833 34.4333 15.5C35.2333 16.3333 36.0167 17.0833 35.9833 17.9C35.95 18.7167 35.1 19.5666 34.25 20.4L27.3667 27.3L25 24.9333L32.0833 17.8667L30.4833 16.2667L28.1167 18.6167L21.8667 12.3667L28.2667 5.98332C28.9167 5.33332 30 5.33332 30.6167 5.98332L34.5167 9.88332C35.1667 10.5 35.1667 11.5833 34.5167 12.2333ZM5 29.25L20.9333 13.3L27.1833 19.55L11.25 35.5H5V29.25Z" fill="black"/>
</svg>
